<svg width="71" height="37" viewBox="0 0 71 37" fill="none" xmlns="http://www.w3.org/2000/svg">
<path d="M12.5 10.22L7.4 24.5H5.6L0.5 10.22H2.38L5.6 19.38C5.74667 19.7667 5.87333 20.14 5.98 20.5C6.08667 20.86 6.18 21.2067 6.26 21.54C6.35333 21.86 6.43333 22.18 6.5 22.5C6.56667 22.18 6.64 21.8533 6.72 21.52C6.81333 21.1867 6.91333 20.84 7.02 20.48C7.14 20.12 7.26667 19.74 7.4 19.34L10.6 10.22H12.5ZM17.9416 13.58C18.8616 13.58 19.6482 13.78 20.3016 14.18C20.9682 14.58 21.4749 15.1467 21.8216 15.88C22.1816 16.6 22.3616 17.4467 22.3616 18.42V19.48H15.0216C15.0482 20.6933 15.3549 21.62 15.9416 22.26C16.5416 22.8867 17.3749 23.2 18.4416 23.2C19.1216 23.2 19.7216 23.14 20.2416 23.02C20.7749 22.8867 21.3216 22.7 21.8816 22.46V24C21.3349 24.24 20.7949 24.4133 20.2616 24.52C19.7282 24.64 19.0949 24.7 18.3616 24.7C17.3482 24.7 16.4482 24.4933 15.6616 24.08C14.8882 23.6667 14.2816 23.0533 13.8416 22.24C13.4149 21.4133 13.2016 20.4067 13.2016 19.22C13.2016 18.0467 13.3949 17.04 13.7816 16.2C14.1816 15.36 14.7349 14.7133 15.4416 14.26C16.1616 13.8067 16.9949 13.58 17.9416 13.58ZM17.9216 15.02C17.0816 15.02 16.4149 15.2933 15.9216 15.84C15.4416 16.3733 15.1549 17.12 15.0616 18.08H20.5216C20.5216 17.4667 20.4282 16.9333 20.2416 16.48C20.0549 16.0267 19.7682 15.6733 19.3816 15.42C19.0082 15.1533 18.5216 15.02 17.9216 15.02ZM30.0906 13.58C30.2906 13.58 30.504 13.5933 30.7306 13.62C30.9706 13.6333 31.1773 13.66 31.3506 13.7L31.1306 15.32C30.9573 15.28 30.764 15.2467 30.5506 15.22C30.3506 15.1933 30.1573 15.18 29.9706 15.18C29.5573 15.18 29.164 15.2667 28.7906 15.44C28.4173 15.6133 28.084 15.86 27.7906 16.18C27.4973 16.4867 27.264 16.86 27.0906 17.3C26.9306 17.74 26.8506 18.2333 26.8506 18.78V24.5H25.0906V13.78H26.5306L26.7306 15.74H26.8106C27.0373 15.34 27.3106 14.98 27.6306 14.66C27.9506 14.3267 28.3173 14.0667 28.7306 13.88C29.144 13.68 29.5973 13.58 30.0906 13.58Z" fill="black"/>
<path d="M56.1 16.4762C56.1 16.7721 56.0509 17.0399 55.9526 17.2794C55.8544 17.5154 55.7228 17.718 55.5579 17.8871C55.393 18.0526 55.2 18.1812 54.9789 18.2728C54.7614 18.3609 54.5333 18.4049 54.2947 18.4049C54.0351 18.4049 53.7947 18.3609 53.5737 18.2728C53.3561 18.1812 53.1667 18.0526 53.0053 17.8871C52.8474 17.718 52.7228 17.5154 52.6316 17.2794C52.5439 17.0399 52.5 16.7721 52.5 16.4762C52.5 16.1733 52.5439 15.8985 52.6316 15.6519C52.7228 15.4053 52.8474 15.1975 53.0053 15.0284C53.1667 14.8593 53.3561 14.729 53.5737 14.6374C53.7947 14.5458 54.0351 14.5 54.2947 14.5C54.5544 14.5 54.7947 14.5458 55.0158 14.6374C55.2368 14.729 55.4281 14.8593 55.5895 15.0284C55.7509 15.1975 55.8754 15.4053 55.9632 15.6519C56.0544 15.8985 56.1 16.1733 56.1 16.4762ZM55.0684 16.4762C55.0684 16.2649 55.0491 16.0887 55.0105 15.9478C54.9719 15.8069 54.9175 15.6942 54.8474 15.6096C54.7772 15.5216 54.6947 15.4599 54.6 15.4247C54.5053 15.386 54.4035 15.3666 54.2947 15.3666C54.186 15.3666 54.0842 15.386 53.9895 15.4247C53.8982 15.4599 53.8175 15.5216 53.7474 15.6096C53.6807 15.6942 53.6281 15.8069 53.5895 15.9478C53.5544 16.0887 53.5368 16.2649 53.5368 16.4762C53.5368 16.677 53.5544 16.8461 53.5895 16.9835C53.6281 17.1173 53.6807 17.2266 53.7474 17.3111C53.8175 17.3921 53.8982 17.4502 53.9895 17.4855C54.0842 17.5207 54.186 17.5383 54.2947 17.5383C54.4035 17.5383 54.5053 17.5207 54.6 17.4855C54.6947 17.4502 54.7772 17.3921 54.8474 17.3111C54.9175 17.2266 54.9719 17.1173 55.0105 16.9835C55.0491 16.8461 55.0684 16.677 55.0684 16.4762ZM58.6947 14.7906C58.7368 14.7378 58.7895 14.6902 58.8526 14.648C58.9193 14.6022 59.0088 14.5793 59.1211 14.5793H60.0895L54.3 22.2041C54.2579 22.2605 54.2035 22.308 54.1368 22.3468C54.0702 22.3855 53.9895 22.4049 53.8947 22.4049H52.9053L58.6947 14.7906ZM60.5 20.5661C60.5 20.862 60.4491 21.1297 60.3474 21.3692C60.2491 21.6052 60.1175 21.8078 59.9526 21.9769C59.7877 22.1424 59.5947 22.271 59.3737 22.3626C59.1561 22.4542 58.9298 22.5 58.6947 22.5C58.4351 22.5 58.1947 22.4542 57.9737 22.3626C57.7561 22.271 57.5667 22.1424 57.4053 21.9769C57.2474 21.8078 57.1228 21.6052 57.0316 21.3692C56.9439 21.1297 56.9 20.862 56.9 20.5661C56.9 20.2631 56.9439 19.9901 57.0316 19.747C57.1228 19.5004 57.2474 19.2926 57.4053 19.1235C57.5667 18.9509 57.7561 18.8188 57.9737 18.7272C58.1947 18.6356 58.4351 18.5898 58.6947 18.5898C58.9509 18.5898 59.1895 18.6356 59.4105 18.7272C59.6316 18.8188 59.8228 18.9509 59.9842 19.1235C60.1456 19.2926 60.2719 19.5004 60.3632 19.747C60.4544 19.9901 60.5 20.2631 60.5 20.5661ZM59.4737 20.5661C59.4737 20.3547 59.4526 20.1803 59.4105 20.0429C59.3719 19.902 59.3175 19.7875 59.2474 19.6995C59.1772 19.6114 59.093 19.5498 58.9947 19.5145C58.9 19.4758 58.8 19.4564 58.6947 19.4564C58.586 19.4564 58.4842 19.4758 58.3895 19.5145C58.2982 19.5498 58.2193 19.6114 58.1526 19.6995C58.086 19.7875 58.0316 19.902 57.9895 20.0429C57.9509 20.1803 57.9316 20.3547 57.9316 20.5661C57.9316 20.7668 57.9509 20.9359 57.9895 21.0733C58.0316 21.2107 58.086 21.3217 58.1526 21.4062C58.2193 21.4872 58.2982 21.5471 58.3895 21.5859C58.4842 21.6211 58.586 21.6387 58.6947 21.6387C58.8 21.6387 58.9 21.6211 58.9947 21.5859C59.093 21.5471 59.1772 21.4872 59.2474 21.4062C59.3175 21.3217 59.3719 21.2107 59.4105 21.0733C59.4526 20.9359 59.4737 20.7668 59.4737 20.5661Z" fill="black"/>
<circle cx="56.5" cy="18.5" r="11.5" stroke="#CCCCCC" stroke-width="5"/>
<path d="M56.067 28.9588C50.2311 28.8846 45.5607 24.0508 45.6355 18.1621C45.7103 12.2733 50.5019 7.55966 56.3379 7.63379" stroke="#FF2218" stroke-width="5"/>
</svg>
