<svg width="26" height="15" viewBox="0 0 26 15" fill="none" xmlns="http://www.w3.org/2000/svg">
<path fill-rule="evenodd" clip-rule="evenodd" d="M4.98438 7.2929L8.0625 10.3295C8.17764 10.4353 8.26998 10.563 8.33403 10.7048C8.39808 10.8466 8.43252 10.9997 8.4353 11.1549C8.43808 11.3101 8.40913 11.4643 8.35019 11.6083C8.29125 11.7522 8.20353 11.883 8.09225 11.9927C7.98097 12.1025 7.84842 12.1891 7.7025 12.2472C7.55658 12.3054 7.40028 12.3339 7.24293 12.3312C7.08559 12.3284 6.93041 12.2945 6.78666 12.2313C6.64291 12.1681 6.51354 12.077 6.40625 11.9634L1.32812 6.95379L0.5 6.13684L1.32812 5.31989L6.40625 0.310275C6.6284 0.106068 6.92222 -0.00510421 7.22582 0.00018011C7.52941 0.00546443 7.81908 0.126793 8.03378 0.338604C8.24849 0.550415 8.37148 0.836171 8.37684 1.13567C8.38219 1.43517 8.2695 1.72503 8.0625 1.94418L4.98438 4.98077H20.4219C21.7687 4.98077 23.0603 5.50857 24.0127 6.44806C24.965 7.38754 25.5 8.66176 25.5 9.99039C25.5 11.319 24.965 12.5932 24.0127 13.5327C23.0603 14.4722 21.7687 15 20.4219 15H17.2969C17.1667 15 16.7237 14.9135 16.4682 14.6614C16.2485 14.4446 16.125 14.1505 16.125 13.8439C16.125 13.5373 16.2485 13.2433 16.4682 13.0265C16.688 12.8097 16.9861 12.6879 17.2969 12.6879H20.4219C21.1471 12.6879 21.8426 12.4037 22.3554 11.8978C22.8682 11.3919 23.1562 10.7058 23.1562 9.99039C23.1562 9.27497 22.8682 8.58885 22.3554 8.08298C21.8426 7.5771 21.1471 7.2929 20.4219 7.2929H4.98438Z" fill="white"/>
</svg>
